<?xml version="1.0" encoding="UTF-8"?>
<svg id="Layer_1" data-name="Layer 1" xmlns="http://www.w3.org/2000/svg" viewBox="0 0 1920 1080">
  <defs>
    <style>
      .cls-1 {
        fill: none;
      }

      .cls-2 {
        fill: #fff;
      }
    </style>
  </defs>
  <g>
    <g>
      <path class="cls-2" d="M144.02,198.19l148.25,246.74,148.26-246.74h69.26v321.59h-69.26v-190.19l-108.77,181.04-5.52,9.18h-67.93l-5.52-9.18-108.77-181.03v190.18h-69.27V198.19h69.27Z"/>
      <g>
        <path class="cls-2" d="M1213.17,369.47v-15.06c0-88.43,72.36-160.79,160.79-160.79,88.44,0,160.8,72.36,160.8,160.79v15.06s0-21.24,0-21.24v15.05c0,88.43-72.36,160.8-160.8,160.8-88.44,0-160.79-72.36-160.79-160.8v-15.05s0,21.24,0,21.24ZM1282.43,348.23v15.05c0,50.33,41.19,91.52,91.53,91.52,50.34,0,91.53-41.19,91.53-91.52v-15.05s0,21.24,0,21.24v-15.06c0-50.33-41.19-91.52-91.53-91.52-50.34,0-91.53,41.19-91.53,91.52v15.06s0-21.24,0-21.24Z"/>
        <path class="cls-2" d="M930.85,198.19h98.4c88.44,0,160.8,72.36,160.8,160.79,0,88.44-72.36,160.8-160.8,160.8h-98.4s-134.11,0-134.11,0h-98.4c-88.43,0-160.8-72.36-160.8-160.8,0-88.44,72.36-160.79,160.8-160.79h98.4s134.11,0,134.11,0ZM1120.78,358.98c0-50.34-41.19-91.53-91.52-91.53h-98.41s-134.11,0-134.11,0h-98.4c-50.33,0-91.52,41.19-91.52,91.53,0,50.34,41.19,91.53,91.52,91.53h98.4s134.11,0,134.11,0h98.41c50.33,0,91.52-41.19,91.52-91.53Z"/>
      </g>
      <path class="cls-2" d="M1557.88,445.94v-252.32h159.11c88.44,0,160.8,72.36,160.8,160.79s-72.36,160.8-160.8,160.8h-159.11v-69.27ZM1716.99,445.94c50.33,0,91.52-41.19,91.52-91.53s-41.19-91.53-91.52-91.53h-89.85v183.06h89.85Z"/>
    </g>
    <path class="cls-2" d="M1275.26,559.23h98.75c88.75,0,161.36,72.61,161.36,161.36,0,88.75-72.61,161.37-161.36,161.37h-98.75s-134.58,0-134.58,0h-347.58c-88.74,0-161.36-72.61-161.36-161.37,0-88.75,72.62-161.36,161.36-161.36h347.58s134.58,0,134.58,0ZM1465.85,720.59c0-50.52-41.34-91.85-91.84-91.85h-98.75s-134.58,0-134.58,0h-347.58c-50.51,0-91.84,41.33-91.84,91.85,0,50.52,41.33,91.85,91.84,91.85h347.58s134.58,0,134.58,0h98.75c50.51,0,91.84-41.33,91.84-91.85Z"/>
    <g>
      <path class="cls-2" d="M287.75,829.15c-5.79,12.41-13.86,22.83-24.21,31.26-10.36,8.43-22.71,14.87-37.06,19.31-14.36,4.44-30.27,6.67-47.74,6.67-24.52,0-48.58-4.22-72.17-12.64-23.6-8.42-45.05-21.38-64.36-38.85l41.83-50.11c14.71,11.95,29.8,21.46,45.28,28.5,15.47,7.05,32.41,10.57,50.8,10.57,14.71,0,26.12-2.68,34.25-8.04,8.12-5.36,12.18-12.79,12.18-22.3v-.92c0-4.6-.85-8.65-2.54-12.18-1.7-3.52-4.92-6.82-9.68-9.88-4.76-3.06-11.37-6.13-19.82-9.19-8.45-3.06-19.44-6.28-32.96-9.65-16.29-3.98-31.04-8.43-44.25-13.33-13.22-4.9-24.43-10.95-33.65-18.16-9.22-7.2-16.36-16.16-21.43-26.89-5.07-10.72-7.61-24.06-7.61-40v-.92c0-14.71,2.74-27.96,8.22-39.77,5.48-11.79,13.17-21.99,23.06-30.57,9.9-8.58,21.71-15.17,35.45-19.77,13.73-4.6,28.88-6.9,45.43-6.9,23.59,0,45.28,3.53,65.05,10.57,19.77,7.05,37.92,17.17,54.47,30.34l-36.78,53.33c-14.41-9.8-28.5-17.54-42.29-23.22-13.79-5.67-27.58-8.5-41.37-8.5s-24.13,2.69-31.03,8.04c-6.9,5.36-10.34,12.03-10.34,20v.92c0,5.22,1,9.73,3,13.56,2,3.84,5.6,7.28,10.83,10.34,5.22,3.07,12.37,5.98,21.43,8.73,9.06,2.76,20.51,5.98,34.34,9.65,16.28,4.3,30.8,9.12,43.56,14.48,12.75,5.37,23.5,11.8,32.26,19.31,8.76,7.51,15.36,16.32,19.82,26.43,4.45,10.11,6.69,22.22,6.69,36.32v.92c0,15.94-2.89,30.11-8.68,42.52Z"/>
      <path class="cls-2" d="M531.8,881.78v-129.18h-130.56v129.18h-70.8v-321.79h70.8v127.34h130.56v-127.34h70.8v321.79h-70.8Z"/>
    </g>
    <path class="cls-2" d="M1803.23,721.34c-6.75,14.1-16.02,25.9-27.81,35.4-11.8,9.5-25.59,16.63-41.37,21.38-15.79,4.76-32.72,7.13-50.8,7.13h-53.79v96.54h-70.8v-321.79h131.48c19.31,0,36.55,2.69,51.72,8.04,15.17,5.36,28.04,12.95,38.62,22.76,10.57,9.81,18.69,21.53,24.36,35.17,5.67,13.64,8.5,28.73,8.5,45.28v.92c0,18.7-3.38,35.1-10.11,49.19ZM1741.63,672.61c0-15.93-5.14-28.04-15.4-36.32-10.27-8.27-24.29-12.41-42.06-12.41h-54.7v98.38h56.08c17.77,0,31.56-4.67,41.37-14.02,9.81-9.34,14.71-20.92,14.71-34.71v-.92Z"/>
  </g>
  <rect class="cls-1" y="130.35" width="1920" height="819.3"/>
</svg>